<svg width="402" height="54" viewBox="0 0 402 54" fill="none" xmlns="http://www.w3.org/2000/svg">
<path d="M7.6276 49.2753H39.4951V53.1125H0.280771L32.2886 4.7263H0V0.889099H39.5419L7.6276 49.2753Z" fill="white"/>
<path d="M59.664 0C67.0577 0 73.4218 2.62053 78.6629 7.86158C83.9039 13.1026 86.5244 19.42 86.5244 26.8604C86.5244 34.254 83.9039 40.6182 78.6629 45.8592C73.4218 51.1003 67.1045 53.7208 59.664 53.7208C52.2704 53.7208 45.9063 51.1003 40.6652 45.8592C35.4242 40.6182 32.7568 34.3008 32.7568 26.8604C32.8036 19.4668 35.4242 13.1026 40.6652 7.86158C45.9063 2.62053 52.2704 0 59.664 0ZM59.664 49.9304C66.0282 49.9304 71.4564 47.6842 75.9955 43.1919C80.4879 38.6528 82.734 33.2245 82.734 26.8604C82.734 20.4963 80.4879 15.068 75.9955 10.5289C71.4564 6.03657 66.0282 3.79041 59.664 3.79041C53.2999 3.79041 47.8717 6.03657 43.3325 10.5289C38.8402 15.068 36.594 20.4963 36.594 26.8604C36.594 33.2245 38.8402 38.6528 43.3325 43.1919C47.8249 47.6842 53.2999 49.9304 59.664 49.9304Z" fill="white"/>
<path d="M72.2983 19.0456C71.222 21.8533 70.6604 24.4738 70.6604 26.9072C70.8476 33.1309 73.0938 38.4188 77.4925 42.8175C81.8913 47.1695 87.1791 49.4624 93.4029 49.6028C98.3164 49.4624 102.715 47.9182 106.693 45.0637C110.577 42.2092 113.244 38.5591 114.741 34.02H119C117.409 39.6822 114.273 44.3149 109.594 47.965C104.821 51.6618 99.4394 53.4868 93.4029 53.4868C86.056 53.4868 79.7855 50.9131 74.5912 45.7188C69.397 40.5245 66.8232 34.254 66.8232 26.9072C66.8232 19.6071 69.397 13.3366 74.5912 8.14232C79.8323 2.94806 86.1028 0.374329 93.4497 0.374329C99.5798 0.374329 105.055 2.29293 109.875 6.08333C114.601 9.78015 117.643 14.1321 118.906 19.0456H72.2983ZM112.823 15.4892C111.325 12.6814 109.173 10.2949 106.459 8.3295C102.575 5.56859 98.2696 4.21153 93.4497 4.21153C87.4599 4.21153 82.3124 6.22372 78.0541 10.2481C76.3694 11.8391 75.0124 13.6173 74.0297 15.4892H112.823Z" fill="white"/>
<path d="M153.3 35.7V19.4H147V18.3H160.8V19.4H154.5V35.6H153.3V35.7Z" fill="white"/>
<path d="M178.5 35.8C177.2 35.8 176 35.6 174.9 35.1C173.8 34.7 172.8 34 172 33.2C171.2 32.4 170.5 31.5 170.1 30.4C169.7 29.3 169.4 28.2 169.4 26.9C169.4 25.6 169.6 24.5 170.1 23.4C170.5 22.3 171.2 21.4 172 20.6C172.8 19.8 173.8 19.2 174.9 18.7C176 18.3 177.2 18 178.5 18C179.8 18 181 18.2 182.1 18.7C183.2 19.1 184.2 19.8 185 20.5C185.8 21.3 186.4 22.2 186.9 23.3C187.4 24.4 187.6 25.5 187.6 26.8C187.6 28.1 187.4 29.2 186.9 30.3C186.4 31.4 185.8 32.3 185 33.1C184.2 33.9 183.2 34.5 182.1 34.9C181 35.6 179.8 35.8 178.5 35.8ZM178.5 34.6C179.6 34.6 180.6 34.4 181.6 34C182.5 33.6 183.4 33.1 184.1 32.4C184.8 31.7 185.3 30.9 185.7 30C186.1 29.1 186.3 28.1 186.3 27C186.3 25.9 186.1 24.9 185.7 24C185.3 23.1 184.8 22.3 184.1 21.6C183.4 20.9 182.6 20.4 181.6 20C180.7 19.6 179.6 19.4 178.5 19.4C177.4 19.4 176.4 19.6 175.4 20C174.5 20.4 173.6 20.9 172.9 21.6C172.2 22.3 171.7 23.1 171.3 24C170.9 24.9 170.7 25.9 170.7 27C170.7 28.1 170.9 29.1 171.3 30C171.7 30.9 172.2 31.7 172.9 32.4C173.6 33.1 174.4 33.6 175.4 34C176.3 34.4 177.4 34.6 178.5 34.6Z" fill="white"/>
<path d="M202.7 35.7L196.8 18.3H198.1L203.7 34.9H203L208.8 18.3H210L215.7 34.9H215.1L220.8 18.3H222L216.1 35.7H214.8L209.2 19.6H209.5L203.9 35.7H202.7Z" fill="white"/>
<path d="M233.2 35.7V18.3H234.3L246.7 34.1H246.1V18.3H247.4V35.7H246.4L234 19.9H234.6V35.7H233.2Z" fill="white"/>
<path d="M262.1 35.7H260.8V18.3H262.1V35.7ZM273.9 27.4H262V26.3H273.9V27.4ZM273.7 18.3H275V35.7H273.7V18.3Z" fill="white"/>
<path d="M295.9 35.8C294.6 35.8 293.4 35.6 292.3 35.1C291.2 34.7 290.2 34 289.4 33.2C288.6 32.4 287.9 31.5 287.5 30.4C287.1 29.3 286.8 28.2 286.8 26.9C286.8 25.6 287 24.5 287.5 23.4C287.9 22.3 288.6 21.4 289.4 20.6C290.2 19.8 291.2 19.2 292.3 18.7C293.4 18.3 294.6 18 295.9 18C297.2 18 298.4 18.2 299.5 18.7C300.6 19.1 301.6 19.8 302.4 20.5C303.2 21.3 303.8 22.2 304.3 23.3C304.8 24.4 305 25.5 305 26.8C305 28.1 304.8 29.2 304.3 30.3C303.8 31.4 303.2 32.3 302.4 33.1C301.6 33.9 300.6 34.5 299.5 34.9C298.4 35.6 297.2 35.8 295.9 35.8ZM295.9 34.6C297 34.6 298 34.4 299 34C299.9 33.6 300.8 33.1 301.5 32.4C302.2 31.7 302.7 30.9 303.1 30C303.5 29.1 303.7 28.1 303.7 27C303.7 25.9 303.5 24.9 303.1 24C302.7 23.1 302.2 22.3 301.5 21.6C300.8 20.9 300 20.4 299 20C298.1 19.6 297 19.4 295.9 19.4C294.8 19.4 293.8 19.6 292.8 20C291.9 20.4 291 20.9 290.3 21.6C289.6 22.3 289.1 23.1 288.7 24C288.3 24.9 288.1 25.9 288.1 27C288.1 28.1 288.3 29.1 288.7 30C289.1 30.9 289.6 31.7 290.3 32.4C291 33.1 291.8 33.6 292.8 34C293.7 34.4 294.8 34.6 295.9 34.6Z" fill="white"/>
<path d="M323.6 35.8C321.4 35.8 319.8 35.2 318.5 33.9C317.3 32.6 316.6 30.8 316.6 28.3V18.3H317.9V28.3C317.9 30.5 318.4 32.1 319.4 33.1C320.4 34.1 321.8 34.7 323.6 34.7C325.4 34.7 326.8 34.2 327.8 33.1C328.8 32 329.3 30.5 329.3 28.3V18.3H330.6V28.3C330.6 30.8 330 32.7 328.7 33.9C327.4 35.2 325.7 35.8 323.6 35.8Z" fill="white"/>
<path d="M348.5 35.8C347.2 35.8 346 35.6 344.8 35.1C343.6 34.7 342.8 34.1 342.1 33.4L342.7 32.5C343.3 33.1 344.1 33.6 345.1 34.1C346.1 34.5 347.2 34.7 348.4 34.7C349.6 34.7 350.5 34.5 351.2 34.2C351.9 33.9 352.5 33.5 352.8 33C353.2 32.5 353.3 31.9 353.3 31.3C353.3 30.6 353.1 30 352.7 29.5C352.3 29.1 351.8 28.7 351.1 28.4C350.5 28.1 349.8 27.9 349 27.7C348.2 27.5 347.5 27.3 346.7 27.1C345.9 26.9 345.2 26.6 344.6 26.3C344 26 343.4 25.5 343 24.9C342.6 24.3 342.4 23.6 342.4 22.7C342.4 21.9 342.6 21.1 343 20.4C343.4 19.7 344.1 19.1 345 18.7C345.9 18.3 347.1 18.1 348.5 18.1C349.5 18.1 350.4 18.2 351.3 18.5C352.2 18.8 353 19.2 353.7 19.6L353.2 20.6C352.5 20.1 351.7 19.7 350.9 19.5C350.1 19.3 349.3 19.1 348.5 19.1C347.4 19.1 346.5 19.3 345.7 19.6C345 19.9 344.4 20.3 344.1 20.9C343.8 21.4 343.6 22 343.6 22.7C343.6 23.4 343.8 24 344.2 24.5C344.6 24.9 345.1 25.3 345.8 25.6C346.4 25.9 347.2 26.1 347.9 26.3C348.7 26.5 349.4 26.7 350.2 26.9C351 27.1 351.7 27.4 352.3 27.7C352.9 28 353.5 28.5 353.9 29C354.3 29.6 354.5 30.3 354.5 31.2C354.5 32 354.3 32.8 353.8 33.5C353.4 34.2 352.7 34.8 351.8 35.2C351.1 35.6 349.9 35.8 348.5 35.8Z" fill="white"/>
<path d="M367.7 34.5H378.4V35.6H366.4V18.2H378V19.3H367.6V34.5H367.7ZM367.6 26.3H377V27.4H367.6V26.3Z" fill="white"/>
<path d="M395.1 35.8C393.8 35.8 392.6 35.6 391.4 35.1C390.2 34.7 389.4 34.1 388.7 33.4L389.3 32.5C389.9 33.1 390.7 33.6 391.7 34.1C392.7 34.5 393.8 34.7 395 34.7C396.2 34.7 397.1 34.5 397.8 34.2C398.5 33.9 399.1 33.5 399.4 33C399.8 32.5 399.9 31.9 399.9 31.3C399.9 30.6 399.7 30 399.3 29.5C398.9 29.1 398.4 28.7 397.7 28.4C397.1 28.1 396.4 27.9 395.6 27.7C394.8 27.5 394.1 27.3 393.3 27.1C392.5 26.9 391.8 26.6 391.2 26.3C390.6 26 390 25.5 389.6 24.9C389.2 24.3 389 23.6 389 22.7C389 21.9 389.2 21.1 389.6 20.4C390 19.7 390.7 19.1 391.6 18.7C392.5 18.3 393.7 18.1 395.1 18.1C396.1 18.1 397 18.2 397.9 18.5C398.8 18.8 399.6 19.2 400.3 19.6L399.8 20.6C399.1 20.1 398.3 19.7 397.5 19.5C396.7 19.3 395.9 19.1 395.1 19.1C394 19.1 393.1 19.3 392.3 19.6C391.6 19.9 391 20.3 390.7 20.9C390.4 21.4 390.2 22 390.2 22.7C390.2 23.4 390.4 24 390.8 24.5C391.2 24.9 391.7 25.3 392.4 25.6C393 25.9 393.8 26.1 394.5 26.3C395.3 26.5 396 26.7 396.8 26.9C397.6 27.1 398.3 27.4 398.9 27.7C399.5 28 400.1 28.5 400.5 29C400.9 29.6 401.1 30.3 401.1 31.2C401.1 32 400.9 32.8 400.4 33.5C400 34.2 399.3 34.8 398.4 35.2C397.7 35.6 396.5 35.8 395.1 35.8Z" fill="white"/>
</svg>
