<svg width="186" height="114" viewBox="0 0 186 114" fill="none" xmlns="http://www.w3.org/2000/svg">
<g clip-path="url(#clip0_562_412)">
<path d="M11.8981 77.2738H61.7048V83.2863H0.442857L50.4857 7.43435H0V1.42188H61.8229L11.8981 77.2738Z" fill="white"/>
<path d="M93.2655 0C104.839 0 114.729 4.11691 122.937 12.3507C131.145 20.5846 135.219 30.5066 135.189 42.1169C135.189 53.7272 131.086 63.6493 122.878 71.8831C114.67 80.1169 104.78 84.2338 93.2065 84.2338C81.6332 84.2338 71.7427 80.1169 63.5351 71.8831C55.3274 63.6493 51.2236 53.7272 51.2236 42.1169C51.2532 30.5066 55.3865 20.5549 63.5941 12.3507C71.8017 4.14653 81.6922 0 93.2655 0ZM93.2065 78.3102C103.156 78.3102 111.659 74.7857 118.745 67.7366C125.771 60.6578 129.285 52.1278 129.285 42.1465C129.285 32.1652 125.771 23.6352 118.745 16.5269C111.688 9.47779 103.186 5.95323 93.2065 5.95323C83.257 5.95323 74.7541 9.47779 67.6979 16.5269C60.6713 23.6056 57.1579 32.1356 57.1579 42.1465C57.1579 52.1278 60.6713 60.6578 67.6979 67.7366C74.7541 74.7857 83.257 78.3102 93.2065 78.3102Z" fill="white"/>
<path d="M113.017 29.8847C111.305 34.2978 110.448 38.4147 110.448 42.1762C110.714 51.9206 114.257 60.2433 121.107 67.1443C127.986 74.0157 136.282 77.5402 145.995 77.7772C153.671 77.5402 160.58 75.1708 166.721 70.6392C172.773 66.1669 176.966 60.421 179.298 53.3126H186C183.52 62.1981 178.619 69.4545 171.297 75.1412C163.857 80.9463 155.413 83.8193 145.995 83.8193C134.51 83.8193 124.738 79.7616 116.589 71.6462C108.5 63.5012 104.455 53.668 104.455 42.1466C104.455 30.6844 108.5 20.8808 116.589 12.7062C124.708 4.59088 134.51 0.533203 145.995 0.533203C155.561 0.533203 164.123 3.49501 171.622 9.44825C179.032 15.283 183.727 22.0655 185.764 29.7959L113.017 29.8847ZM176.316 24.2869C173.954 19.9034 170.647 16.1419 166.337 13.032C160.285 8.73741 153.524 6.57529 145.995 6.57529C136.607 6.57529 128.606 9.74443 121.963 16.0531C119.306 18.5706 117.209 21.3251 115.645 24.2869H176.316Z" fill="white"/>
<path d="M4.57619 113.912V102.005H0V101.176H10.0676V102.005H5.49143V113.912H4.57619Z" fill="white"/>
<path d="M23.0284 114C22.0836 114 21.1979 113.852 20.4008 113.526C19.6036 113.2 18.895 112.756 18.3046 112.163C17.7141 111.571 17.2417 110.89 16.9169 110.12C16.5922 109.35 16.415 108.491 16.415 107.573C16.415 106.654 16.5922 105.796 16.9169 105.025C17.2417 104.255 17.7141 103.545 18.3046 102.982C18.895 102.389 19.6036 101.945 20.4008 101.619C21.1979 101.294 22.0836 101.146 23.0284 101.146C23.9731 101.146 24.8588 101.294 25.656 101.619C26.4531 101.945 27.1617 102.389 27.7522 102.982C28.3427 103.574 28.815 104.255 29.1398 105.025C29.4646 105.796 29.6417 106.654 29.6417 107.602C29.6417 108.55 29.4646 109.409 29.1398 110.179C28.815 110.949 28.3427 111.66 27.7522 112.223C27.1617 112.815 26.4531 113.259 25.656 113.585C24.8293 113.852 23.9731 114 23.0284 114ZM23.0284 113.141C23.8255 113.141 24.5931 112.993 25.2722 112.726C25.9512 112.46 26.5712 112.045 27.0731 111.541C27.575 111.038 27.9884 110.446 28.2541 109.764C28.5493 109.083 28.6674 108.343 28.6674 107.543C28.6674 106.743 28.5198 105.973 28.2541 105.322C27.9588 104.64 27.575 104.048 27.0731 103.545C26.5712 103.041 25.9512 102.626 25.2722 102.36C24.5931 102.093 23.8255 101.945 23.0284 101.945C22.2312 101.945 21.4636 102.093 20.7846 102.36C20.1055 102.626 19.4855 103.041 18.9836 103.545C18.4817 104.048 18.0684 104.64 17.7731 105.322C17.4779 106.003 17.3598 106.743 17.3598 107.543C17.3598 108.343 17.5074 109.083 17.7731 109.764C18.0684 110.446 18.4522 111.038 18.9836 111.541C19.4855 112.045 20.1055 112.46 20.7846 112.726C21.4636 112.993 22.2017 113.141 23.0284 113.141Z" fill="white"/>
<path d="M40.7431 113.912L36.4326 101.176H37.4069L41.5107 113.349H41.0088L45.2307 101.176H46.1164L50.3088 113.349H49.8364L53.9698 101.176H54.885L50.5745 113.912H49.6002L45.5259 102.124H45.7621L41.6879 113.912H40.7431Z" fill="white"/>
<path d="M63.0332 113.912V101.176H63.8008L72.8646 112.786H72.4513V101.176H73.3665V113.912H72.5989L63.5351 102.301H63.9484V113.912H63.0332Z" fill="white"/>
<path d="M84.1721 113.911H83.2568V101.175H84.1721V113.911ZM92.7635 107.839H84.054V107.01H92.7635V107.839ZM92.6749 101.146H93.5902V113.881H92.6749V101.146Z" fill="white"/>
<path d="M108.855 114C107.91 114 107.024 113.852 106.227 113.526C105.43 113.2 104.721 112.756 104.131 112.163C103.54 111.571 103.068 110.89 102.743 110.12C102.418 109.35 102.241 108.491 102.241 107.573C102.241 106.654 102.418 105.796 102.743 105.025C103.068 104.255 103.54 103.545 104.131 102.982C104.721 102.389 105.43 101.945 106.227 101.619C107.024 101.294 107.91 101.146 108.855 101.146C109.799 101.146 110.685 101.294 111.482 101.619C112.279 101.945 112.988 102.389 113.578 102.982C114.169 103.574 114.641 104.255 114.966 105.025C115.291 105.796 115.468 106.654 115.468 107.602C115.468 108.55 115.291 109.409 114.966 110.179C114.641 110.949 114.169 111.66 113.578 112.223C112.988 112.815 112.279 113.259 111.482 113.585C110.685 113.852 109.799 114 108.855 114ZM108.855 113.141C109.652 113.141 110.419 112.993 111.098 112.726C111.777 112.46 112.397 112.045 112.899 111.541C113.401 111.038 113.815 110.446 114.08 109.764C114.375 109.083 114.494 108.343 114.494 107.543C114.494 106.743 114.346 105.973 114.08 105.322C113.785 104.64 113.401 104.048 112.899 103.545C112.397 103.041 111.777 102.626 111.098 102.36C110.419 102.093 109.652 101.945 108.855 101.945C108.057 101.945 107.29 102.093 106.611 102.36C105.932 102.626 105.312 103.041 104.81 103.545C104.308 104.048 103.895 104.64 103.599 105.322C103.304 106.003 103.186 106.743 103.186 107.543C103.186 108.343 103.334 109.083 103.599 109.764C103.895 110.446 104.278 111.038 104.81 111.541C105.312 112.045 105.932 112.46 106.611 112.726C107.29 112.993 108.057 113.141 108.855 113.141Z" fill="white"/>
<path d="M129.107 114C127.543 114 126.303 113.526 125.387 112.608C124.472 111.69 124.029 110.327 124.029 108.491V101.146H124.945V108.461C124.945 110.061 125.299 111.216 126.037 111.986C126.775 112.756 127.779 113.141 129.137 113.141C130.465 113.141 131.469 112.756 132.207 111.986C132.945 111.216 133.3 110.031 133.3 108.461V101.146H134.215V108.491C134.215 110.297 133.772 111.69 132.857 112.608C131.942 113.526 130.702 114 129.107 114Z" fill="white"/>
<path d="M147.324 114C146.379 114 145.493 113.852 144.637 113.526C143.781 113.2 143.131 112.786 142.688 112.282L143.102 111.601C143.545 112.045 144.135 112.43 144.903 112.727C145.67 113.023 146.468 113.2 147.294 113.2C148.15 113.2 148.829 113.082 149.361 112.875C149.892 112.638 150.306 112.341 150.571 111.986C150.837 111.601 150.955 111.186 150.955 110.742C150.955 110.209 150.808 109.765 150.512 109.439C150.217 109.113 149.833 108.847 149.361 108.669C148.888 108.461 148.387 108.313 147.826 108.165C147.265 108.017 146.704 107.899 146.143 107.751C145.582 107.603 145.05 107.395 144.578 107.158C144.106 106.921 143.722 106.596 143.456 106.151C143.161 105.737 143.043 105.204 143.043 104.522C143.043 103.93 143.19 103.367 143.515 102.834C143.84 102.331 144.312 101.916 144.991 101.59C145.67 101.264 146.497 101.116 147.56 101.116C148.268 101.116 148.948 101.205 149.627 101.412C150.306 101.62 150.896 101.886 151.368 102.242L151.014 102.982C150.483 102.627 149.922 102.36 149.302 102.182C148.682 102.005 148.091 101.916 147.53 101.916C146.733 101.916 146.054 102.034 145.523 102.271C144.991 102.508 144.608 102.804 144.342 103.189C144.076 103.575 143.958 103.989 143.958 104.463C143.958 104.996 144.106 105.44 144.371 105.766C144.667 106.092 145.021 106.359 145.493 106.536C145.966 106.744 146.497 106.892 147.058 107.04C147.619 107.188 148.18 107.306 148.741 107.454C149.302 107.603 149.804 107.81 150.276 108.047C150.748 108.284 151.132 108.61 151.428 109.024C151.723 109.439 151.87 109.972 151.87 110.624C151.87 111.216 151.693 111.779 151.368 112.282C151.044 112.786 150.542 113.2 149.863 113.526C149.243 113.852 148.387 114 147.324 114Z" fill="white"/>
<path d="M161.406 113.082H169.26V113.912H160.491V101.176H168.994V102.005H161.436V113.082H161.406ZM161.288 107.04H168.167V107.869H161.288V107.04Z" fill="white"/>
<path d="M181.424 114C180.48 114 179.594 113.852 178.738 113.526C177.881 113.2 177.232 112.786 176.789 112.282L177.202 111.601C177.645 112.045 178.236 112.43 179.003 112.727C179.771 113.023 180.568 113.2 181.395 113.2C182.251 113.2 182.93 113.082 183.461 112.875C183.993 112.638 184.406 112.341 184.672 111.986C184.938 111.601 185.056 111.186 185.056 110.742C185.056 110.209 184.908 109.765 184.613 109.439C184.318 109.113 183.934 108.847 183.461 108.669C182.989 108.461 182.487 108.313 181.926 108.165C181.365 108.017 180.804 107.899 180.243 107.751C179.682 107.603 179.151 107.395 178.679 107.158C178.206 106.921 177.822 106.596 177.557 106.151C177.261 105.737 177.143 105.204 177.143 104.522C177.143 103.93 177.291 103.367 177.616 102.834C177.94 102.331 178.413 101.916 179.092 101.59C179.771 101.264 180.598 101.116 181.66 101.116C182.369 101.116 183.048 101.205 183.727 101.412C184.406 101.62 184.997 101.886 185.469 102.242L185.115 102.982C184.583 102.627 184.022 102.36 183.402 102.182C182.782 102.005 182.192 101.916 181.631 101.916C180.834 101.916 180.155 102.034 179.623 102.271C179.092 102.508 178.708 102.804 178.442 103.189C178.177 103.575 178.059 103.989 178.059 104.463C178.059 104.996 178.206 105.44 178.472 105.766C178.767 106.092 179.121 106.359 179.594 106.536C180.066 106.744 180.598 106.892 181.159 107.04C181.72 107.188 182.28 107.306 182.841 107.454C183.402 107.603 183.904 107.81 184.377 108.047C184.849 108.284 185.233 108.61 185.528 109.024C185.823 109.439 185.971 109.972 185.971 110.624C185.971 111.216 185.794 111.779 185.469 112.282C185.144 112.786 184.642 113.2 183.963 113.526C183.343 113.852 182.458 114 181.424 114Z" fill="white"/>
</g>
<defs>
<clipPath id="clip0_562_412">
<rect width="186" height="114" fill="white"/>
</clipPath>
</defs>
</svg>
